<?xml version="1.0" encoding="utf-8" standalone="no"?>
<!DOCTYPE svg PUBLIC "-//W3C//DTD SVG 1.1//EN"
  "http://www.w3.org/Graphics/SVG/1.1/DTD/svg11.dtd">
<!-- Created with matplotlib (http://matplotlib.org/) -->
<svg height="432pt" version="1.1" viewBox="0 0 576 432" width="576pt" xmlns="http://www.w3.org/2000/svg" xmlns:xlink="http://www.w3.org/1999/xlink">
 <defs>
  <style type="text/css">
*{stroke-linecap:butt;stroke-linejoin:round;}
  </style>
 </defs>
 <g id="figure_1">
  <g id="patch_1">
   <path d="M 0 432 
L 576 432 
L 576 0 
L 0 0 
z
" style="fill:#ffffff;"/>
  </g>
  <g id="axes_1">
   <g id="patch_2">
    <path d="M 72 378 
L 518.4 378 
L 518.4 51.84 
L 72 51.84 
z
" style="fill:#eaeaf2;"/>
   </g>
   <g id="matplotlib.axis_1">
    <g id="xtick_1">
     <g id="line2d_1">
      <path clip-path="url(#p8a6580f50c)" d="M 87.679339 378 
L 87.679339 51.84 
" style="fill:none;stroke:#ffffff;stroke-linecap:round;"/>
     </g>
     <g id="line2d_2"/>
     <g id="text_1">
      <!-- 0 -->
      <defs>
       <path d="M 31.78125 66.40625 
Q 24.171875 66.40625 20.328125 58.90625 
Q 16.5 51.421875 16.5 36.375 
Q 16.5 21.390625 20.328125 13.890625 
Q 24.171875 6.390625 31.78125 6.390625 
Q 39.453125 6.390625 43.28125 13.890625 
Q 47.125 21.390625 47.125 36.375 
Q 47.125 51.421875 43.28125 58.90625 
Q 39.453125 66.40625 31.78125 66.40625 
z
M 31.78125 74.21875 
Q 44.046875 74.21875 50.515625 64.515625 
Q 56.984375 54.828125 56.984375 36.375 
Q 56.984375 17.96875 50.515625 8.265625 
Q 44.046875 -1.421875 31.78125 -1.421875 
Q 19.53125 -1.421875 13.0625 8.265625 
Q 6.59375 17.96875 6.59375 36.375 
Q 6.59375 54.828125 13.0625 64.515625 
Q 19.53125 74.21875 31.78125 74.21875 
z
" id="DejaVuSans-30"/>
      </defs>
      <g style="fill:#262626;" transform="translate(84.498089 392.598437)scale(0.1 -0.1)">
       <use xlink:href="#DejaVuSans-30"/>
      </g>
     </g>
    </g>
    <g id="xtick_2">
     <g id="line2d_3">
      <path clip-path="url(#p8a6580f50c)" d="M 179.910744 378 
L 179.910744 51.84 
" style="fill:none;stroke:#ffffff;stroke-linecap:round;"/>
     </g>
     <g id="line2d_4"/>
     <g id="text_2">
      <!-- 20 -->
      <defs>
       <path d="M 19.1875 8.296875 
L 53.609375 8.296875 
L 53.609375 0 
L 7.328125 0 
L 7.328125 8.296875 
Q 12.9375 14.109375 22.625 23.890625 
Q 32.328125 33.6875 34.8125 36.53125 
Q 39.546875 41.84375 41.421875 45.53125 
Q 43.3125 49.21875 43.3125 52.78125 
Q 43.3125 58.59375 39.234375 62.25 
Q 35.15625 65.921875 28.609375 65.921875 
Q 23.96875 65.921875 18.8125 64.3125 
Q 13.671875 62.703125 7.8125 59.421875 
L 7.8125 69.390625 
Q 13.765625 71.78125 18.9375 73 
Q 24.125 74.21875 28.421875 74.21875 
Q 39.75 74.21875 46.484375 68.546875 
Q 53.21875 62.890625 53.21875 53.421875 
Q 53.21875 48.921875 51.53125 44.890625 
Q 49.859375 40.875 45.40625 35.40625 
Q 44.1875 33.984375 37.640625 27.21875 
Q 31.109375 20.453125 19.1875 8.296875 
z
" id="DejaVuSans-32"/>
      </defs>
      <g style="fill:#262626;" transform="translate(173.548244 392.598437)scale(0.1 -0.1)">
       <use xlink:href="#DejaVuSans-32"/>
       <use x="63.623047" xlink:href="#DejaVuSans-30"/>
      </g>
     </g>
    </g>
    <g id="xtick_3">
     <g id="line2d_5">
      <path clip-path="url(#p8a6580f50c)" d="M 272.142149 378 
L 272.142149 51.84 
" style="fill:none;stroke:#ffffff;stroke-linecap:round;"/>
     </g>
     <g id="line2d_6"/>
     <g id="text_3">
      <!-- 40 -->
      <defs>
       <path d="M 37.796875 64.3125 
L 12.890625 25.390625 
L 37.796875 25.390625 
z
M 35.203125 72.90625 
L 47.609375 72.90625 
L 47.609375 25.390625 
L 58.015625 25.390625 
L 58.015625 17.1875 
L 47.609375 17.1875 
L 47.609375 0 
L 37.796875 0 
L 37.796875 17.1875 
L 4.890625 17.1875 
L 4.890625 26.703125 
z
" id="DejaVuSans-34"/>
      </defs>
      <g style="fill:#262626;" transform="translate(265.779649 392.598437)scale(0.1 -0.1)">
       <use xlink:href="#DejaVuSans-34"/>
       <use x="63.623047" xlink:href="#DejaVuSans-30"/>
      </g>
     </g>
    </g>
    <g id="xtick_4">
     <g id="line2d_7">
      <path clip-path="url(#p8a6580f50c)" d="M 364.373554 378 
L 364.373554 51.84 
" style="fill:none;stroke:#ffffff;stroke-linecap:round;"/>
     </g>
     <g id="line2d_8"/>
     <g id="text_4">
      <!-- 60 -->
      <defs>
       <path d="M 33.015625 40.375 
Q 26.375 40.375 22.484375 35.828125 
Q 18.609375 31.296875 18.609375 23.390625 
Q 18.609375 15.53125 22.484375 10.953125 
Q 26.375 6.390625 33.015625 6.390625 
Q 39.65625 6.390625 43.53125 10.953125 
Q 47.40625 15.53125 47.40625 23.390625 
Q 47.40625 31.296875 43.53125 35.828125 
Q 39.65625 40.375 33.015625 40.375 
z
M 52.59375 71.296875 
L 52.59375 62.3125 
Q 48.875 64.0625 45.09375 64.984375 
Q 41.3125 65.921875 37.59375 65.921875 
Q 27.828125 65.921875 22.671875 59.328125 
Q 17.53125 52.734375 16.796875 39.40625 
Q 19.671875 43.65625 24.015625 45.921875 
Q 28.375 48.1875 33.59375 48.1875 
Q 44.578125 48.1875 50.953125 41.515625 
Q 57.328125 34.859375 57.328125 23.390625 
Q 57.328125 12.15625 50.6875 5.359375 
Q 44.046875 -1.421875 33.015625 -1.421875 
Q 20.359375 -1.421875 13.671875 8.265625 
Q 6.984375 17.96875 6.984375 36.375 
Q 6.984375 53.65625 15.1875 63.9375 
Q 23.390625 74.21875 37.203125 74.21875 
Q 40.921875 74.21875 44.703125 73.484375 
Q 48.484375 72.75 52.59375 71.296875 
z
" id="DejaVuSans-36"/>
      </defs>
      <g style="fill:#262626;" transform="translate(358.011054 392.598437)scale(0.1 -0.1)">
       <use xlink:href="#DejaVuSans-36"/>
       <use x="63.623047" xlink:href="#DejaVuSans-30"/>
      </g>
     </g>
    </g>
    <g id="xtick_5">
     <g id="line2d_9">
      <path clip-path="url(#p8a6580f50c)" d="M 456.604959 378 
L 456.604959 51.84 
" style="fill:none;stroke:#ffffff;stroke-linecap:round;"/>
     </g>
     <g id="line2d_10"/>
     <g id="text_5">
      <!-- 80 -->
      <defs>
       <path d="M 31.78125 34.625 
Q 24.75 34.625 20.71875 30.859375 
Q 16.703125 27.09375 16.703125 20.515625 
Q 16.703125 13.921875 20.71875 10.15625 
Q 24.75 6.390625 31.78125 6.390625 
Q 38.8125 6.390625 42.859375 10.171875 
Q 46.921875 13.96875 46.921875 20.515625 
Q 46.921875 27.09375 42.890625 30.859375 
Q 38.875 34.625 31.78125 34.625 
z
M 21.921875 38.8125 
Q 15.578125 40.375 12.03125 44.71875 
Q 8.5 49.078125 8.5 55.328125 
Q 8.5 64.0625 14.71875 69.140625 
Q 20.953125 74.21875 31.78125 74.21875 
Q 42.671875 74.21875 48.875 69.140625 
Q 55.078125 64.0625 55.078125 55.328125 
Q 55.078125 49.078125 51.53125 44.71875 
Q 48 40.375 41.703125 38.8125 
Q 48.828125 37.15625 52.796875 32.3125 
Q 56.78125 27.484375 56.78125 20.515625 
Q 56.78125 9.90625 50.3125 4.234375 
Q 43.84375 -1.421875 31.78125 -1.421875 
Q 19.734375 -1.421875 13.25 4.234375 
Q 6.78125 9.90625 6.78125 20.515625 
Q 6.78125 27.484375 10.78125 32.3125 
Q 14.796875 37.15625 21.921875 38.8125 
z
M 18.3125 54.390625 
Q 18.3125 48.734375 21.84375 45.5625 
Q 25.390625 42.390625 31.78125 42.390625 
Q 38.140625 42.390625 41.71875 45.5625 
Q 45.3125 48.734375 45.3125 54.390625 
Q 45.3125 60.0625 41.71875 63.234375 
Q 38.140625 66.40625 31.78125 66.40625 
Q 25.390625 66.40625 21.84375 63.234375 
Q 18.3125 60.0625 18.3125 54.390625 
z
" id="DejaVuSans-38"/>
      </defs>
      <g style="fill:#262626;" transform="translate(450.242459 392.598437)scale(0.1 -0.1)">
       <use xlink:href="#DejaVuSans-38"/>
       <use x="63.623047" xlink:href="#DejaVuSans-30"/>
      </g>
     </g>
    </g>
   </g>
   <g id="matplotlib.axis_2">
    <g id="ytick_1">
     <g id="line2d_11">
      <path clip-path="url(#p8a6580f50c)" d="M 72 353.609736 
L 518.4 353.609736 
" style="fill:none;stroke:#ffffff;stroke-linecap:round;"/>
     </g>
     <g id="line2d_12"/>
     <g id="text_6">
      <!-- 10 -->
      <defs>
       <path d="M 12.40625 8.296875 
L 28.515625 8.296875 
L 28.515625 63.921875 
L 10.984375 60.40625 
L 10.984375 69.390625 
L 28.421875 72.90625 
L 38.28125 72.90625 
L 38.28125 8.296875 
L 54.390625 8.296875 
L 54.390625 0 
L 12.40625 0 
z
" id="DejaVuSans-31"/>
      </defs>
      <g style="fill:#262626;" transform="translate(52.275 357.408955)scale(0.1 -0.1)">
       <use xlink:href="#DejaVuSans-31"/>
       <use x="63.623047" xlink:href="#DejaVuSans-30"/>
      </g>
     </g>
    </g>
    <g id="ytick_2">
     <g id="line2d_13">
      <path clip-path="url(#p8a6580f50c)" d="M 72 315.350499 
L 518.4 315.350499 
" style="fill:none;stroke:#ffffff;stroke-linecap:round;"/>
     </g>
     <g id="line2d_14"/>
     <g id="text_7">
      <!-- 12 -->
      <g style="fill:#262626;" transform="translate(52.275 319.149717)scale(0.1 -0.1)">
       <use xlink:href="#DejaVuSans-31"/>
       <use x="63.623047" xlink:href="#DejaVuSans-32"/>
      </g>
     </g>
    </g>
    <g id="ytick_3">
     <g id="line2d_15">
      <path clip-path="url(#p8a6580f50c)" d="M 72 277.091261 
L 518.4 277.091261 
" style="fill:none;stroke:#ffffff;stroke-linecap:round;"/>
     </g>
     <g id="line2d_16"/>
     <g id="text_8">
      <!-- 14 -->
      <g style="fill:#262626;" transform="translate(52.275 280.89048)scale(0.1 -0.1)">
       <use xlink:href="#DejaVuSans-31"/>
       <use x="63.623047" xlink:href="#DejaVuSans-34"/>
      </g>
     </g>
    </g>
    <g id="ytick_4">
     <g id="line2d_17">
      <path clip-path="url(#p8a6580f50c)" d="M 72 238.832023 
L 518.4 238.832023 
" style="fill:none;stroke:#ffffff;stroke-linecap:round;"/>
     </g>
     <g id="line2d_18"/>
     <g id="text_9">
      <!-- 16 -->
      <g style="fill:#262626;" transform="translate(52.275 242.631242)scale(0.1 -0.1)">
       <use xlink:href="#DejaVuSans-31"/>
       <use x="63.623047" xlink:href="#DejaVuSans-36"/>
      </g>
     </g>
    </g>
    <g id="ytick_5">
     <g id="line2d_19">
      <path clip-path="url(#p8a6580f50c)" d="M 72 200.572786 
L 518.4 200.572786 
" style="fill:none;stroke:#ffffff;stroke-linecap:round;"/>
     </g>
     <g id="line2d_20"/>
     <g id="text_10">
      <!-- 18 -->
      <g style="fill:#262626;" transform="translate(52.275 204.372005)scale(0.1 -0.1)">
       <use xlink:href="#DejaVuSans-31"/>
       <use x="63.623047" xlink:href="#DejaVuSans-38"/>
      </g>
     </g>
    </g>
    <g id="ytick_6">
     <g id="line2d_21">
      <path clip-path="url(#p8a6580f50c)" d="M 72 162.313548 
L 518.4 162.313548 
" style="fill:none;stroke:#ffffff;stroke-linecap:round;"/>
     </g>
     <g id="line2d_22"/>
     <g id="text_11">
      <!-- 20 -->
      <g style="fill:#262626;" transform="translate(52.275 166.112767)scale(0.1 -0.1)">
       <use xlink:href="#DejaVuSans-32"/>
       <use x="63.623047" xlink:href="#DejaVuSans-30"/>
      </g>
     </g>
    </g>
    <g id="ytick_7">
     <g id="line2d_23">
      <path clip-path="url(#p8a6580f50c)" d="M 72 124.054311 
L 518.4 124.054311 
" style="fill:none;stroke:#ffffff;stroke-linecap:round;"/>
     </g>
     <g id="line2d_24"/>
     <g id="text_12">
      <!-- 22 -->
      <g style="fill:#262626;" transform="translate(52.275 127.85353)scale(0.1 -0.1)">
       <use xlink:href="#DejaVuSans-32"/>
       <use x="63.623047" xlink:href="#DejaVuSans-32"/>
      </g>
     </g>
    </g>
    <g id="ytick_8">
     <g id="line2d_25">
      <path clip-path="url(#p8a6580f50c)" d="M 72 85.795073 
L 518.4 85.795073 
" style="fill:none;stroke:#ffffff;stroke-linecap:round;"/>
     </g>
     <g id="line2d_26"/>
     <g id="text_13">
      <!-- 24 -->
      <g style="fill:#262626;" transform="translate(52.275 89.594292)scale(0.1 -0.1)">
       <use xlink:href="#DejaVuSans-32"/>
       <use x="63.623047" xlink:href="#DejaVuSans-34"/>
      </g>
     </g>
    </g>
   </g>
   <g id="line2d_27">
    <path clip-path="url(#p8a6580f50c)" d="M 92.290909 248.396833 
L 96.902479 296.22088 
L 101.51405 277.091261 
L 106.12562 277.091261 
L 110.73719 257.961642 
L 115.34876 229.267214 
L 119.960331 210.137595 
L 124.571901 257.961642 
L 129.183471 296.22088 
L 133.795041 277.091261 
L 138.406612 277.091261 
L 143.018182 257.961642 
L 147.629752 229.267214 
L 152.241322 210.137595 
L 156.852893 257.961642 
L 161.464463 296.22088 
L 166.076033 277.091261 
L 170.687603 277.091261 
L 175.299174 257.961642 
L 179.910744 229.267214 
L 184.522314 210.137595 
L 189.133884 257.961642 
L 193.745455 296.22088 
L 198.357025 277.091261 
L 202.968595 277.091261 
L 207.580165 257.961642 
L 212.191736 229.267214 
L 216.803306 210.137595 
L 221.414876 257.961642 
L 226.026446 296.22088 
L 230.638017 277.091261 
L 235.249587 267.526452 
L 239.861157 238.832023 
L 244.472727 210.137595 
L 249.084298 191.007977 
L 253.695868 238.832023 
L 258.307438 286.65607 
L 262.919008 277.091261 
L 267.530579 267.526452 
L 272.142149 238.832023 
L 276.753719 210.137595 
L 281.365289 191.007977 
L 285.97686 238.832023 
L 290.58843 286.65607 
L 295.2 277.091261 
L 299.81157 267.526452 
L 304.42314 238.832023 
L 309.034711 210.137595 
L 313.646281 191.007977 
L 318.257851 238.832023 
L 322.869421 286.65607 
L 327.480992 277.091261 
L 332.092562 267.526452 
L 336.704132 238.832023 
L 341.315702 210.137595 
L 345.927273 191.007977 
L 350.538843 238.832023 
L 355.150413 286.65607 
L 359.761983 257.961642 
L 364.373554 229.267214 
L 368.985124 191.007977 
L 373.596694 152.748739 
L 378.208264 124.054311 
L 382.819835 181.443167 
L 387.431405 238.832023 
L 392.042975 219.702405 
L 396.654545 210.137595 
L 401.266116 181.443167 
L 405.877686 152.748739 
L 410.489256 124.054311 
L 415.100826 181.443167 
L 419.712397 238.832023 
L 424.323967 219.702405 
L 428.935537 210.137595 
L 433.547107 181.443167 
L 438.158678 152.748739 
L 442.770248 124.054311 
L 447.381818 181.443167 
L 451.993388 238.832023 
L 456.604959 219.702405 
L 461.216529 210.137595 
L 465.828099 181.443167 
L 470.439669 152.748739 
L 475.05124 124.054311 
L 479.66281 181.443167 
L 484.27438 238.832023 
L 488.88595 219.702405 
L 493.497521 210.137595 
L 498.109091 181.443167 
" style="fill:none;stroke:#3d8dea;stroke-linecap:round;stroke-width:2;"/>
   </g>
   <g id="line2d_28">
    <path clip-path="url(#p8a6580f50c)" d="M 92.290909 229.267214 
L 96.902479 277.091261 
L 101.51405 257.961642 
L 106.12562 248.396833 
L 110.73719 219.702405 
L 115.34876 191.007977 
L 119.960331 162.313548 
L 124.571901 210.137595 
L 129.183471 257.961642 
L 133.795041 248.396833 
L 138.406612 238.832023 
L 143.018182 210.137595 
L 147.629752 191.007977 
L 152.241322 162.313548 
L 156.852893 210.137595 
L 161.464463 257.961642 
L 166.076033 248.396833 
L 170.687603 238.832023 
L 175.299174 210.137595 
L 179.910744 191.007977 
L 184.522314 162.313548 
L 189.133884 210.137595 
L 193.745455 257.961642 
L 198.357025 248.396833 
L 202.968595 238.832023 
L 207.580165 210.137595 
L 212.191736 191.007977 
L 216.803306 162.313548 
L 221.414876 210.137595 
L 226.026446 257.961642 
L 230.638017 238.832023 
L 235.249587 229.267214 
L 239.861157 200.572786 
L 244.472727 162.313548 
L 249.084298 133.61912 
L 253.695868 191.007977 
L 258.307438 238.832023 
L 262.919008 219.702405 
L 267.530579 210.137595 
L 272.142149 181.443167 
L 276.753719 152.748739 
L 281.365289 124.054311 
L 285.97686 181.443167 
L 290.58843 238.832023 
L 295.2 219.702405 
L 299.81157 210.137595 
L 304.42314 181.443167 
L 309.034711 152.748739 
L 313.646281 124.054311 
L 318.257851 181.443167 
L 322.869421 238.832023 
L 327.480992 219.702405 
L 332.092562 210.137595 
L 336.704132 181.443167 
L 341.315702 152.748739 
L 345.927273 124.054311 
L 350.538843 181.443167 
L 355.150413 238.832023 
L 359.761983 210.137595 
L 364.373554 191.007977 
L 368.985124 162.313548 
L 373.596694 124.054311 
L 378.208264 85.795073 
L 382.819835 152.748739 
L 387.431405 210.137595 
L 392.042975 181.443167 
L 396.654545 162.313548 
L 401.266116 133.61912 
L 405.877686 104.924692 
L 410.489256 76.230264 
L 415.100826 152.748739 
L 419.712397 210.137595 
L 424.323967 181.443167 
L 428.935537 162.313548 
L 433.547107 133.61912 
L 438.158678 104.924692 
L 442.770248 76.230264 
L 447.381818 152.748739 
L 451.993388 210.137595 
L 456.604959 181.443167 
L 461.216529 162.313548 
L 465.828099 133.61912 
L 470.439669 104.924692 
L 475.05124 66.665455 
L 479.66281 143.18393 
L 484.27438 210.137595 
L 488.88595 181.443167 
L 493.497521 162.313548 
L 498.109091 133.61912 
" style="fill:none;stroke:#6abb3e;stroke-linecap:round;stroke-width:2;"/>
   </g>
   <g id="line2d_29">
    <path clip-path="url(#p8a6580f50c)" d="M 92.290909 219.702405 
L 96.902479 305.785689 
L 101.51405 296.22088 
L 106.12562 257.961642 
L 110.73719 181.443167 
L 115.34876 181.443167 
L 119.960331 219.702405 
L 124.571901 181.443167 
L 129.183471 267.526452 
L 133.795041 305.785689 
L 138.406612 248.396833 
L 143.018182 315.350499 
L 147.629752 324.915308 
L 152.241322 124.054311 
L 156.852893 133.61912 
L 161.464463 267.526452 
L 166.076033 315.350499 
L 170.687603 296.22088 
L 175.299174 181.443167 
L 179.910744 210.137595 
L 184.522314 219.702405 
L 189.133884 257.961642 
L 193.745455 286.65607 
L 198.357025 238.832023 
L 202.968595 286.65607 
L 207.580165 324.915308 
L 212.191736 296.22088 
L 216.803306 162.313548 
L 221.414876 229.267214 
L 226.026446 296.22088 
L 230.638017 238.832023 
L 235.249587 238.832023 
L 239.861157 152.748739 
L 244.472727 76.230264 
L 249.084298 66.665455 
L 253.695868 152.748739 
L 258.307438 277.091261 
L 262.919008 238.832023 
L 267.530579 200.572786 
L 272.142149 238.832023 
L 276.753719 219.702405 
L 281.365289 191.007977 
L 285.97686 257.961642 
L 290.58843 296.22088 
L 295.2 191.007977 
L 299.81157 229.267214 
L 304.42314 277.091261 
L 309.034711 171.878358 
L 313.646281 162.313548 
L 318.257851 324.915308 
L 322.869421 363.174545 
L 327.480992 296.22088 
L 332.092562 181.443167 
L 336.704132 152.748739 
L 341.315702 248.396833 
L 345.927273 124.054311 
L 350.538843 162.313548 
L 355.150413 238.832023 
L 359.761983 200.572786 
L 364.373554 171.878358 
L 368.985124 114.489501 
L 373.596694 210.137595 
L 378.208264 181.443167 
L 382.819835 200.572786 
L 387.431405 305.785689 
L 392.042975 248.396833 
L 396.654545 229.267214 
L 401.266116 219.702405 
L 405.877686 229.267214 
L 410.489256 200.572786 
L 415.100826 210.137595 
L 419.712397 181.443167 
L 424.323967 104.924692 
L 428.935537 114.489501 
L 433.547107 162.313548 
L 438.158678 191.007977 
L 442.770248 114.489501 
L 447.381818 171.878358 
L 451.993388 286.65607 
L 456.604959 200.572786 
L 461.216529 152.748739 
L 465.828099 191.007977 
L 470.439669 171.878358 
L 475.05124 191.007977 
L 479.66281 181.443167 
L 484.27438 219.702405 
L 488.88595 305.785689 
L 493.497521 219.702405 
L 498.109091 210.137595 
" style="fill:none;stroke:#000000;stroke-linecap:round;stroke-width:2;"/>
   </g>
   <g id="patch_3">
    <path d="M 72 378 
L 72 51.84 
" style="fill:none;"/>
   </g>
   <g id="patch_4">
    <path d="M 518.4 378 
L 518.4 51.84 
" style="fill:none;"/>
   </g>
   <g id="patch_5">
    <path d="M 72 378 
L 518.4 378 
" style="fill:none;"/>
   </g>
   <g id="patch_6">
    <path d="M 72 51.84 
L 518.4 51.84 
" style="fill:none;"/>
   </g>
   <g id="legend_1">
    <g id="line2d_30">
     <path d="M 81 64.938437 
L 101 64.938437 
" style="fill:none;stroke:#3d8dea;stroke-linecap:round;stroke-width:2;"/>
    </g>
    <g id="line2d_31"/>
    <g id="text_14">
     <!-- Basic model prediction -->
     <defs>
      <path d="M 19.671875 34.8125 
L 19.671875 8.109375 
L 35.5 8.109375 
Q 43.453125 8.109375 47.28125 11.40625 
Q 51.125 14.703125 51.125 21.484375 
Q 51.125 28.328125 47.28125 31.5625 
Q 43.453125 34.8125 35.5 34.8125 
z
M 19.671875 64.796875 
L 19.671875 42.828125 
L 34.28125 42.828125 
Q 41.5 42.828125 45.03125 45.53125 
Q 48.578125 48.25 48.578125 53.8125 
Q 48.578125 59.328125 45.03125 62.0625 
Q 41.5 64.796875 34.28125 64.796875 
z
M 9.8125 72.90625 
L 35.015625 72.90625 
Q 46.296875 72.90625 52.390625 68.21875 
Q 58.5 63.53125 58.5 54.890625 
Q 58.5 48.1875 55.375 44.234375 
Q 52.25 40.28125 46.1875 39.3125 
Q 53.46875 37.75 57.5 32.78125 
Q 61.53125 27.828125 61.53125 20.40625 
Q 61.53125 10.640625 54.890625 5.3125 
Q 48.25 0 35.984375 0 
L 9.8125 0 
z
" id="DejaVuSans-42"/>
      <path d="M 34.28125 27.484375 
Q 23.390625 27.484375 19.1875 25 
Q 14.984375 22.515625 14.984375 16.5 
Q 14.984375 11.71875 18.140625 8.90625 
Q 21.296875 6.109375 26.703125 6.109375 
Q 34.1875 6.109375 38.703125 11.40625 
Q 43.21875 16.703125 43.21875 25.484375 
L 43.21875 27.484375 
z
M 52.203125 31.203125 
L 52.203125 0 
L 43.21875 0 
L 43.21875 8.296875 
Q 40.140625 3.328125 35.546875 0.953125 
Q 30.953125 -1.421875 24.3125 -1.421875 
Q 15.921875 -1.421875 10.953125 3.296875 
Q 6 8.015625 6 15.921875 
Q 6 25.140625 12.171875 29.828125 
Q 18.359375 34.515625 30.609375 34.515625 
L 43.21875 34.515625 
L 43.21875 35.40625 
Q 43.21875 41.609375 39.140625 45 
Q 35.0625 48.390625 27.6875 48.390625 
Q 23 48.390625 18.546875 47.265625 
Q 14.109375 46.140625 10.015625 43.890625 
L 10.015625 52.203125 
Q 14.9375 54.109375 19.578125 55.046875 
Q 24.21875 56 28.609375 56 
Q 40.484375 56 46.34375 49.84375 
Q 52.203125 43.703125 52.203125 31.203125 
z
" id="DejaVuSans-61"/>
      <path d="M 44.28125 53.078125 
L 44.28125 44.578125 
Q 40.484375 46.53125 36.375 47.5 
Q 32.28125 48.484375 27.875 48.484375 
Q 21.1875 48.484375 17.84375 46.4375 
Q 14.5 44.390625 14.5 40.28125 
Q 14.5 37.15625 16.890625 35.375 
Q 19.28125 33.59375 26.515625 31.984375 
L 29.59375 31.296875 
Q 39.15625 29.25 43.1875 25.515625 
Q 47.21875 21.78125 47.21875 15.09375 
Q 47.21875 7.46875 41.1875 3.015625 
Q 35.15625 -1.421875 24.609375 -1.421875 
Q 20.21875 -1.421875 15.453125 -0.5625 
Q 10.6875 0.296875 5.421875 2 
L 5.421875 11.28125 
Q 10.40625 8.6875 15.234375 7.390625 
Q 20.0625 6.109375 24.8125 6.109375 
Q 31.15625 6.109375 34.5625 8.28125 
Q 37.984375 10.453125 37.984375 14.40625 
Q 37.984375 18.0625 35.515625 20.015625 
Q 33.0625 21.96875 24.703125 23.78125 
L 21.578125 24.515625 
Q 13.234375 26.265625 9.515625 29.90625 
Q 5.8125 33.546875 5.8125 39.890625 
Q 5.8125 47.609375 11.28125 51.796875 
Q 16.75 56 26.8125 56 
Q 31.78125 56 36.171875 55.265625 
Q 40.578125 54.546875 44.28125 53.078125 
z
" id="DejaVuSans-73"/>
      <path d="M 9.421875 54.6875 
L 18.40625 54.6875 
L 18.40625 0 
L 9.421875 0 
z
M 9.421875 75.984375 
L 18.40625 75.984375 
L 18.40625 64.59375 
L 9.421875 64.59375 
z
" id="DejaVuSans-69"/>
      <path d="M 48.78125 52.59375 
L 48.78125 44.1875 
Q 44.96875 46.296875 41.140625 47.34375 
Q 37.3125 48.390625 33.40625 48.390625 
Q 24.65625 48.390625 19.8125 42.84375 
Q 14.984375 37.3125 14.984375 27.296875 
Q 14.984375 17.28125 19.8125 11.734375 
Q 24.65625 6.203125 33.40625 6.203125 
Q 37.3125 6.203125 41.140625 7.25 
Q 44.96875 8.296875 48.78125 10.40625 
L 48.78125 2.09375 
Q 45.015625 0.34375 40.984375 -0.53125 
Q 36.96875 -1.421875 32.421875 -1.421875 
Q 20.0625 -1.421875 12.78125 6.34375 
Q 5.515625 14.109375 5.515625 27.296875 
Q 5.515625 40.671875 12.859375 48.328125 
Q 20.21875 56 33.015625 56 
Q 37.15625 56 41.109375 55.140625 
Q 45.0625 54.296875 48.78125 52.59375 
z
" id="DejaVuSans-63"/>
      <path id="DejaVuSans-20"/>
      <path d="M 52 44.1875 
Q 55.375 50.25 60.0625 53.125 
Q 64.75 56 71.09375 56 
Q 79.640625 56 84.28125 50.015625 
Q 88.921875 44.046875 88.921875 33.015625 
L 88.921875 0 
L 79.890625 0 
L 79.890625 32.71875 
Q 79.890625 40.578125 77.09375 44.375 
Q 74.3125 48.1875 68.609375 48.1875 
Q 61.625 48.1875 57.5625 43.546875 
Q 53.515625 38.921875 53.515625 30.90625 
L 53.515625 0 
L 44.484375 0 
L 44.484375 32.71875 
Q 44.484375 40.625 41.703125 44.40625 
Q 38.921875 48.1875 33.109375 48.1875 
Q 26.21875 48.1875 22.15625 43.53125 
Q 18.109375 38.875 18.109375 30.90625 
L 18.109375 0 
L 9.078125 0 
L 9.078125 54.6875 
L 18.109375 54.6875 
L 18.109375 46.1875 
Q 21.1875 51.21875 25.484375 53.609375 
Q 29.78125 56 35.6875 56 
Q 41.65625 56 45.828125 52.96875 
Q 50 49.953125 52 44.1875 
z
" id="DejaVuSans-6d"/>
      <path d="M 30.609375 48.390625 
Q 23.390625 48.390625 19.1875 42.75 
Q 14.984375 37.109375 14.984375 27.296875 
Q 14.984375 17.484375 19.15625 11.84375 
Q 23.34375 6.203125 30.609375 6.203125 
Q 37.796875 6.203125 41.984375 11.859375 
Q 46.1875 17.53125 46.1875 27.296875 
Q 46.1875 37.015625 41.984375 42.703125 
Q 37.796875 48.390625 30.609375 48.390625 
z
M 30.609375 56 
Q 42.328125 56 49.015625 48.375 
Q 55.71875 40.765625 55.71875 27.296875 
Q 55.71875 13.875 49.015625 6.21875 
Q 42.328125 -1.421875 30.609375 -1.421875 
Q 18.84375 -1.421875 12.171875 6.21875 
Q 5.515625 13.875 5.515625 27.296875 
Q 5.515625 40.765625 12.171875 48.375 
Q 18.84375 56 30.609375 56 
z
" id="DejaVuSans-6f"/>
      <path d="M 45.40625 46.390625 
L 45.40625 75.984375 
L 54.390625 75.984375 
L 54.390625 0 
L 45.40625 0 
L 45.40625 8.203125 
Q 42.578125 3.328125 38.25 0.953125 
Q 33.9375 -1.421875 27.875 -1.421875 
Q 17.96875 -1.421875 11.734375 6.484375 
Q 5.515625 14.40625 5.515625 27.296875 
Q 5.515625 40.1875 11.734375 48.09375 
Q 17.96875 56 27.875 56 
Q 33.9375 56 38.25 53.625 
Q 42.578125 51.265625 45.40625 46.390625 
z
M 14.796875 27.296875 
Q 14.796875 17.390625 18.875 11.75 
Q 22.953125 6.109375 30.078125 6.109375 
Q 37.203125 6.109375 41.296875 11.75 
Q 45.40625 17.390625 45.40625 27.296875 
Q 45.40625 37.203125 41.296875 42.84375 
Q 37.203125 48.484375 30.078125 48.484375 
Q 22.953125 48.484375 18.875 42.84375 
Q 14.796875 37.203125 14.796875 27.296875 
z
" id="DejaVuSans-64"/>
      <path d="M 56.203125 29.59375 
L 56.203125 25.203125 
L 14.890625 25.203125 
Q 15.484375 15.921875 20.484375 11.0625 
Q 25.484375 6.203125 34.421875 6.203125 
Q 39.59375 6.203125 44.453125 7.46875 
Q 49.3125 8.734375 54.109375 11.28125 
L 54.109375 2.78125 
Q 49.265625 0.734375 44.1875 -0.34375 
Q 39.109375 -1.421875 33.890625 -1.421875 
Q 20.796875 -1.421875 13.15625 6.1875 
Q 5.515625 13.8125 5.515625 26.8125 
Q 5.515625 40.234375 12.765625 48.109375 
Q 20.015625 56 32.328125 56 
Q 43.359375 56 49.78125 48.890625 
Q 56.203125 41.796875 56.203125 29.59375 
z
M 47.21875 32.234375 
Q 47.125 39.59375 43.09375 43.984375 
Q 39.0625 48.390625 32.421875 48.390625 
Q 24.90625 48.390625 20.390625 44.140625 
Q 15.875 39.890625 15.1875 32.171875 
z
" id="DejaVuSans-65"/>
      <path d="M 9.421875 75.984375 
L 18.40625 75.984375 
L 18.40625 0 
L 9.421875 0 
z
" id="DejaVuSans-6c"/>
      <path d="M 18.109375 8.203125 
L 18.109375 -20.796875 
L 9.078125 -20.796875 
L 9.078125 54.6875 
L 18.109375 54.6875 
L 18.109375 46.390625 
Q 20.953125 51.265625 25.265625 53.625 
Q 29.59375 56 35.59375 56 
Q 45.5625 56 51.78125 48.09375 
Q 58.015625 40.1875 58.015625 27.296875 
Q 58.015625 14.40625 51.78125 6.484375 
Q 45.5625 -1.421875 35.59375 -1.421875 
Q 29.59375 -1.421875 25.265625 0.953125 
Q 20.953125 3.328125 18.109375 8.203125 
z
M 48.6875 27.296875 
Q 48.6875 37.203125 44.609375 42.84375 
Q 40.53125 48.484375 33.40625 48.484375 
Q 26.265625 48.484375 22.1875 42.84375 
Q 18.109375 37.203125 18.109375 27.296875 
Q 18.109375 17.390625 22.1875 11.75 
Q 26.265625 6.109375 33.40625 6.109375 
Q 40.53125 6.109375 44.609375 11.75 
Q 48.6875 17.390625 48.6875 27.296875 
z
" id="DejaVuSans-70"/>
      <path d="M 41.109375 46.296875 
Q 39.59375 47.171875 37.8125 47.578125 
Q 36.03125 48 33.890625 48 
Q 26.265625 48 22.1875 43.046875 
Q 18.109375 38.09375 18.109375 28.8125 
L 18.109375 0 
L 9.078125 0 
L 9.078125 54.6875 
L 18.109375 54.6875 
L 18.109375 46.1875 
Q 20.953125 51.171875 25.484375 53.578125 
Q 30.03125 56 36.53125 56 
Q 37.453125 56 38.578125 55.875 
Q 39.703125 55.765625 41.0625 55.515625 
z
" id="DejaVuSans-72"/>
      <path d="M 18.3125 70.21875 
L 18.3125 54.6875 
L 36.8125 54.6875 
L 36.8125 47.703125 
L 18.3125 47.703125 
L 18.3125 18.015625 
Q 18.3125 11.328125 20.140625 9.421875 
Q 21.96875 7.515625 27.59375 7.515625 
L 36.8125 7.515625 
L 36.8125 0 
L 27.59375 0 
Q 17.1875 0 13.234375 3.875 
Q 9.28125 7.765625 9.28125 18.015625 
L 9.28125 47.703125 
L 2.6875 47.703125 
L 2.6875 54.6875 
L 9.28125 54.6875 
L 9.28125 70.21875 
z
" id="DejaVuSans-74"/>
      <path d="M 54.890625 33.015625 
L 54.890625 0 
L 45.90625 0 
L 45.90625 32.71875 
Q 45.90625 40.484375 42.875 44.328125 
Q 39.84375 48.1875 33.796875 48.1875 
Q 26.515625 48.1875 22.3125 43.546875 
Q 18.109375 38.921875 18.109375 30.90625 
L 18.109375 0 
L 9.078125 0 
L 9.078125 54.6875 
L 18.109375 54.6875 
L 18.109375 46.1875 
Q 21.34375 51.125 25.703125 53.5625 
Q 30.078125 56 35.796875 56 
Q 45.21875 56 50.046875 50.171875 
Q 54.890625 44.34375 54.890625 33.015625 
z
" id="DejaVuSans-6e"/>
     </defs>
     <g style="fill:#262626;" transform="translate(109 68.438437)scale(0.1 -0.1)">
      <use xlink:href="#DejaVuSans-42"/>
      <use x="68.603516" xlink:href="#DejaVuSans-61"/>
      <use x="129.882812" xlink:href="#DejaVuSans-73"/>
      <use x="181.982422" xlink:href="#DejaVuSans-69"/>
      <use x="209.765625" xlink:href="#DejaVuSans-63"/>
      <use x="264.746094" xlink:href="#DejaVuSans-20"/>
      <use x="296.533203" xlink:href="#DejaVuSans-6d"/>
      <use x="393.945312" xlink:href="#DejaVuSans-6f"/>
      <use x="455.126953" xlink:href="#DejaVuSans-64"/>
      <use x="518.603516" xlink:href="#DejaVuSans-65"/>
      <use x="580.126953" xlink:href="#DejaVuSans-6c"/>
      <use x="607.910156" xlink:href="#DejaVuSans-20"/>
      <use x="639.697266" xlink:href="#DejaVuSans-70"/>
      <use x="703.173828" xlink:href="#DejaVuSans-72"/>
      <use x="744.255859" xlink:href="#DejaVuSans-65"/>
      <use x="805.779297" xlink:href="#DejaVuSans-64"/>
      <use x="869.255859" xlink:href="#DejaVuSans-69"/>
      <use x="897.039062" xlink:href="#DejaVuSans-63"/>
      <use x="952.019531" xlink:href="#DejaVuSans-74"/>
      <use x="991.228516" xlink:href="#DejaVuSans-69"/>
      <use x="1019.011719" xlink:href="#DejaVuSans-6f"/>
      <use x="1080.193359" xlink:href="#DejaVuSans-6e"/>
     </g>
    </g>
    <g id="line2d_32">
     <path d="M 81 79.616562 
L 101 79.616562 
" style="fill:none;stroke:#6abb3e;stroke-linecap:round;stroke-width:2;"/>
    </g>
    <g id="line2d_33"/>
    <g id="text_15">
     <!-- Complex model prediction -->
     <defs>
      <path d="M 64.40625 67.28125 
L 64.40625 56.890625 
Q 59.421875 61.53125 53.78125 63.8125 
Q 48.140625 66.109375 41.796875 66.109375 
Q 29.296875 66.109375 22.65625 58.46875 
Q 16.015625 50.828125 16.015625 36.375 
Q 16.015625 21.96875 22.65625 14.328125 
Q 29.296875 6.6875 41.796875 6.6875 
Q 48.140625 6.6875 53.78125 8.984375 
Q 59.421875 11.28125 64.40625 15.921875 
L 64.40625 5.609375 
Q 59.234375 2.09375 53.4375 0.328125 
Q 47.65625 -1.421875 41.21875 -1.421875 
Q 24.65625 -1.421875 15.125 8.703125 
Q 5.609375 18.84375 5.609375 36.375 
Q 5.609375 53.953125 15.125 64.078125 
Q 24.65625 74.21875 41.21875 74.21875 
Q 47.75 74.21875 53.53125 72.484375 
Q 59.328125 70.75 64.40625 67.28125 
z
" id="DejaVuSans-43"/>
      <path d="M 54.890625 54.6875 
L 35.109375 28.078125 
L 55.90625 0 
L 45.3125 0 
L 29.390625 21.484375 
L 13.484375 0 
L 2.875 0 
L 24.125 28.609375 
L 4.6875 54.6875 
L 15.28125 54.6875 
L 29.78125 35.203125 
L 44.28125 54.6875 
z
" id="DejaVuSans-78"/>
     </defs>
     <g style="fill:#262626;" transform="translate(109 83.116562)scale(0.1 -0.1)">
      <use xlink:href="#DejaVuSans-43"/>
      <use x="69.824219" xlink:href="#DejaVuSans-6f"/>
      <use x="131.005859" xlink:href="#DejaVuSans-6d"/>
      <use x="228.417969" xlink:href="#DejaVuSans-70"/>
      <use x="291.894531" xlink:href="#DejaVuSans-6c"/>
      <use x="319.677734" xlink:href="#DejaVuSans-65"/>
      <use x="381.185547" xlink:href="#DejaVuSans-78"/>
      <use x="440.365234" xlink:href="#DejaVuSans-20"/>
      <use x="472.152344" xlink:href="#DejaVuSans-6d"/>
      <use x="569.564453" xlink:href="#DejaVuSans-6f"/>
      <use x="630.746094" xlink:href="#DejaVuSans-64"/>
      <use x="694.222656" xlink:href="#DejaVuSans-65"/>
      <use x="755.746094" xlink:href="#DejaVuSans-6c"/>
      <use x="783.529297" xlink:href="#DejaVuSans-20"/>
      <use x="815.316406" xlink:href="#DejaVuSans-70"/>
      <use x="878.792969" xlink:href="#DejaVuSans-72"/>
      <use x="919.875" xlink:href="#DejaVuSans-65"/>
      <use x="981.398438" xlink:href="#DejaVuSans-64"/>
      <use x="1044.875" xlink:href="#DejaVuSans-69"/>
      <use x="1072.658203" xlink:href="#DejaVuSans-63"/>
      <use x="1127.638672" xlink:href="#DejaVuSans-74"/>
      <use x="1166.847656" xlink:href="#DejaVuSans-69"/>
      <use x="1194.630859" xlink:href="#DejaVuSans-6f"/>
      <use x="1255.8125" xlink:href="#DejaVuSans-6e"/>
     </g>
    </g>
    <g id="line2d_34">
     <path d="M 81 94.294687 
L 101 94.294687 
" style="fill:none;stroke:#000000;stroke-linecap:round;stroke-width:2;"/>
    </g>
    <g id="line2d_35"/>
    <g id="text_16">
     <!-- Real values -->
     <defs>
      <path d="M 44.390625 34.1875 
Q 47.5625 33.109375 50.5625 29.59375 
Q 53.5625 26.078125 56.59375 19.921875 
L 66.609375 0 
L 56 0 
L 46.6875 18.703125 
Q 43.0625 26.03125 39.671875 28.421875 
Q 36.28125 30.8125 30.421875 30.8125 
L 19.671875 30.8125 
L 19.671875 0 
L 9.8125 0 
L 9.8125 72.90625 
L 32.078125 72.90625 
Q 44.578125 72.90625 50.734375 67.671875 
Q 56.890625 62.453125 56.890625 51.90625 
Q 56.890625 45.015625 53.6875 40.46875 
Q 50.484375 35.9375 44.390625 34.1875 
z
M 19.671875 64.796875 
L 19.671875 38.921875 
L 32.078125 38.921875 
Q 39.203125 38.921875 42.84375 42.21875 
Q 46.484375 45.515625 46.484375 51.90625 
Q 46.484375 58.296875 42.84375 61.546875 
Q 39.203125 64.796875 32.078125 64.796875 
z
" id="DejaVuSans-52"/>
      <path d="M 2.984375 54.6875 
L 12.5 54.6875 
L 29.59375 8.796875 
L 46.6875 54.6875 
L 56.203125 54.6875 
L 35.6875 0 
L 23.484375 0 
z
" id="DejaVuSans-76"/>
      <path d="M 8.5 21.578125 
L 8.5 54.6875 
L 17.484375 54.6875 
L 17.484375 21.921875 
Q 17.484375 14.15625 20.5 10.265625 
Q 23.53125 6.390625 29.59375 6.390625 
Q 36.859375 6.390625 41.078125 11.03125 
Q 45.3125 15.671875 45.3125 23.6875 
L 45.3125 54.6875 
L 54.296875 54.6875 
L 54.296875 0 
L 45.3125 0 
L 45.3125 8.40625 
Q 42.046875 3.421875 37.71875 1 
Q 33.40625 -1.421875 27.6875 -1.421875 
Q 18.265625 -1.421875 13.375 4.4375 
Q 8.5 10.296875 8.5 21.578125 
z
M 31.109375 56 
z
" id="DejaVuSans-75"/>
     </defs>
     <g style="fill:#262626;" transform="translate(109 97.794687)scale(0.1 -0.1)">
      <use xlink:href="#DejaVuSans-52"/>
      <use x="69.419922" xlink:href="#DejaVuSans-65"/>
      <use x="130.943359" xlink:href="#DejaVuSans-61"/>
      <use x="192.222656" xlink:href="#DejaVuSans-6c"/>
      <use x="220.005859" xlink:href="#DejaVuSans-20"/>
      <use x="251.792969" xlink:href="#DejaVuSans-76"/>
      <use x="310.972656" xlink:href="#DejaVuSans-61"/>
      <use x="372.251953" xlink:href="#DejaVuSans-6c"/>
      <use x="400.035156" xlink:href="#DejaVuSans-75"/>
      <use x="463.414062" xlink:href="#DejaVuSans-65"/>
      <use x="524.9375" xlink:href="#DejaVuSans-73"/>
     </g>
    </g>
   </g>
  </g>
 </g>
 <defs>
  <clipPath id="p8a6580f50c">
   <rect height="326.16" width="446.4" x="72" y="51.84"/>
  </clipPath>
 </defs>
</svg>
